<svg width="100" height="100" viewBox="0 0 100 100" fill="none" xmlns="http://www.w3.org/2000/svg">
<g clip-path="url(#clip0_33_8610)">
<path d="M100 0H0V100H100V0Z" fill="white"/>
<path d="M60.0123 79.4603C59.8947 79.4609 59.8354 79.4018 59.8346 79.2829L59.7278 54.779C59.7271 54.6839 59.7738 54.6361 59.8679 54.6355L71.1567 54.5724C71.2743 54.5717 71.3334 54.6189 71.3341 54.7141L71.3633 58.7445C71.364 58.8396 71.3173 58.8874 71.2232 58.8879L63.9913 58.9284L64.0313 64.4568L71.2632 64.4164C71.3573 64.4159 71.4047 64.475 71.4056 64.5939L71.47 68.6242C71.4707 68.7193 71.4123 68.7672 71.2947 68.7678L64.0628 68.8083L64.1384 79.2588C64.1393 79.3777 64.0809 79.4375 63.9633 79.4382L60.0123 79.4603Z" fill="#FF0048"/>
<path d="M44.8199 79.5442C44.7023 79.5449 44.6431 79.4858 44.6422 79.3669L44.5355 54.863C44.5348 54.7679 44.5815 54.72 44.6755 54.7195L55.9643 54.6564C56.0819 54.6557 56.141 54.7029 56.1417 54.798L56.1709 58.8285C56.1716 58.9236 56.1249 58.9714 56.0308 58.9719L48.7989 59.0124L48.8389 64.5408L56.0708 64.5004C56.1649 64.4998 56.2124 64.559 56.2132 64.6779L56.2776 68.7081C56.2783 68.8033 56.2199 68.8511 56.1023 68.8518L48.8704 68.8923L48.946 79.3428C48.9469 79.4617 48.8885 79.5215 48.7709 79.5221L44.8199 79.5442Z" fill="#FF0048"/>
<path d="M35.0497 79.9565C33.7797 79.9636 32.6133 79.6491 31.5503 79.0131C30.5107 78.353 29.6695 77.4898 29.0268 76.4233C28.3838 75.3331 28.0577 74.1341 28.0482 72.8263L28.0017 61.5195C27.9922 60.2117 28.2893 59.0211 28.8931 57.9476C29.5203 56.874 30.3608 56.0133 31.4145 55.3654C32.4681 54.7174 33.6182 54.39 34.8647 54.383C36.1347 54.3759 37.2894 54.6904 38.3288 55.3267C39.3683 55.9629 40.1976 56.8143 40.8168 57.8809C41.4596 58.9474 41.7857 60.1345 41.7951 61.4423L41.9122 72.7487C41.9217 74.0565 41.6129 75.2591 40.9858 76.3564C40.3821 77.4299 39.5535 78.3025 38.4999 78.9742C37.4698 79.622 36.3197 79.9494 35.0497 79.9565ZM35.0185 75.6408C35.724 75.6368 36.3335 75.3481 36.8467 74.7745C37.3834 74.177 37.649 73.5097 37.6437 72.7726L37.5266 61.4662C37.5209 60.6815 37.2691 60.0171 36.7713 59.473C36.2735 58.9288 35.6482 58.6589 34.8957 58.6631C34.1666 58.6672 33.5453 58.9441 33.0319 59.4939C32.5183 60.0199 32.2644 60.6871 32.2702 61.4956L32.352 72.8022C32.3577 73.5869 32.6213 74.2631 33.1429 74.8309C33.6642 75.3749 34.2894 75.6449 35.0185 75.6408Z" fill="#FF0048"/>
<path d="M59.8037 31.9787C58.9806 31.9833 58.2147 31.7736 57.506 31.3496C56.8209 30.9254 56.2641 30.3578 55.8356 29.6468C55.4306 28.9357 55.2251 28.164 55.2191 27.3318L55.2008 24.7994C55.1946 23.9434 55.3888 23.1576 55.7835 22.442C56.2016 21.7263 56.7503 21.1644 57.4294 20.7563C58.1318 20.3244 58.8946 20.1061 59.7178 20.1015C60.5644 20.0968 61.3303 20.3065 62.0155 20.7307C62.7004 21.1311 63.2454 21.6869 63.6503 22.398C64.0553 23.1091 64.2609 23.8926 64.2671 24.7487L64.2854 27.281C64.2916 28.1371 64.0856 28.9229 63.6675 29.6386C63.2726 30.3305 62.7358 30.8923 62.0568 31.3241C61.3779 31.7559 60.6269 31.9741 59.8037 31.9787ZM57.36 45.2969C57.2424 45.2976 57.2067 45.2383 57.2529 45.1192L71.1513 20.5369C71.2211 20.4414 71.2914 20.3934 71.3619 20.393L75.4541 20.3701C75.5717 20.3695 75.6073 20.4168 75.561 20.5122L61.6978 45.0943C61.6517 45.2134 61.5815 45.2733 61.4875 45.2738L57.36 45.2969ZM59.7123 29.0901C60.1826 29.0874 60.5695 28.9188 60.8728 28.5842C61.176 28.2258 61.3257 27.797 61.3221 27.2976L61.3043 24.8366C61.3009 24.361 61.1451 23.9576 60.8369 23.6264C60.5286 23.2715 60.1393 23.0953 59.6689 23.098C59.1985 23.1006 58.8 23.2812 58.4733 23.6397C58.17 23.9743 58.0201 24.3794 58.0235 24.8549L58.0413 27.316C58.0448 27.7915 58.2124 28.2067 58.5442 28.5616C58.8761 28.9164 59.2654 29.0926 59.7123 29.0901ZM73.4844 45.5634C72.6612 45.568 71.8953 45.3583 71.1867 44.9342C70.5016 44.51 69.9448 43.9424 69.5163 43.2314C69.1113 42.5203 68.9058 41.7486 68.8998 40.9164L68.8814 38.384C68.8753 37.528 69.0695 36.7422 69.4641 36.0266C69.8823 35.3109 70.4309 34.749 71.11 34.341C71.8125 33.909 72.5753 33.6907 73.3984 33.6861C74.2451 33.6814 75.011 33.8911 75.6961 34.3153C76.3811 34.7157 76.926 35.2715 77.331 35.9826C77.736 36.6937 77.9415 37.4773 77.9477 38.3333L77.9661 40.8657C77.9723 41.7217 77.7663 42.5076 77.3481 43.2233C76.9533 43.9151 76.4164 44.4769 75.7375 44.9087C75.0585 45.3406 74.3075 45.5588 73.4844 45.5634ZM73.4282 42.6745C73.8985 42.6719 74.2854 42.5033 74.5887 42.1687C74.8919 41.8103 75.0417 41.3814 75.038 40.8821L75.0202 38.421C75.0168 37.9454 74.861 37.5421 74.5528 37.2109C74.2445 36.8559 73.8552 36.6798 73.3848 36.6824C72.9145 36.685 72.5159 36.8656 72.1893 37.2241C71.8859 37.5587 71.736 37.9638 71.7394 38.4394L71.7572 40.9004C71.7607 41.376 71.9283 41.7912 72.2602 42.146C72.592 42.5008 72.9813 42.677 73.4282 42.6745Z" fill="#FF0048"/>
<path d="M45.8949 45.7172C44.3898 45.7257 43.0586 45.4121 41.9016 44.7765C40.7444 44.1172 39.8327 43.2543 39.1664 42.188C38.5235 41.0977 38.1973 39.8987 38.1879 38.5909L38.1413 27.2841C38.1319 25.9763 38.4408 24.7856 39.068 23.7121C39.7188 22.6384 40.618 21.7773 41.7658 21.1288C42.9135 20.4804 44.2282 20.152 45.7099 20.1437C47.2151 20.1353 48.5344 20.4489 49.6679 21.0846C50.8015 21.7203 51.6896 22.5714 52.3323 23.6379C52.9986 24.7042 53.3364 25.8913 53.3459 27.1991L53.463 38.5055C53.4724 39.8133 53.1519 41.0159 52.5013 42.1134C51.874 43.187 50.9866 44.0599 49.839 44.7321C48.7148 45.3804 47.4001 45.7088 45.8949 45.7172ZM49.1944 38.5293L49.0773 27.223C49.0713 26.3907 48.7607 25.7147 48.1454 25.195C47.5301 24.6753 46.7286 24.4183 45.7409 24.4238C44.7296 24.4294 43.9201 24.6955 43.3124 25.2221C42.7047 25.7486 42.4039 26.428 42.4099 27.2603L42.4917 38.5668C42.4981 39.4466 42.8089 40.1464 43.4241 40.6661C44.0392 41.162 44.8524 41.4071 45.8637 41.4015C46.8515 41.396 47.6493 41.1418 48.2571 40.639C48.8884 40.1124 49.2008 39.4091 49.1944 38.5293Z" fill="#FF0048"/>
<path d="M29.1347 45.811C27.8882 45.818 26.7335 45.5034 25.6705 44.8673C24.6309 44.2073 23.7897 43.3441 23.147 42.2776C22.5043 41.2112 22.1782 40.0359 22.169 38.7519L22.0521 27.4812C22.0427 26.1734 22.3515 24.9708 22.9786 23.8734C23.6056 22.7761 24.446 21.9035 25.4997 21.2555C26.5532 20.5838 27.7032 20.2445 28.9497 20.2375C30.2196 20.2304 31.3744 20.5568 32.4141 21.2168C33.477 21.8529 34.3182 22.7162 34.9376 23.8065C35.5803 24.873 35.9065 26.072 35.9162 27.4036L35.9213 28.117C35.922 28.2121 35.8636 28.26 35.746 28.2606L31.7949 28.2827C31.7008 28.2833 31.6534 28.236 31.6527 28.1409L31.6476 27.4275C31.6419 26.6428 31.3784 25.9785 30.857 25.4345C30.359 24.8666 29.7337 24.5847 28.9811 24.5889C28.2521 24.593 27.6309 24.8818 27.1176 25.4554C26.6042 26.0052 26.3503 26.6724 26.356 27.4571L26.3738 29.9182C27.2179 29.5567 28.0985 29.3735 29.0157 29.3683C30.2857 29.3612 31.4404 29.6758 32.4799 30.312C33.5428 30.9481 34.384 31.8114 35.0034 32.9017C35.6226 33.9683 35.937 35.1555 35.9464 36.4633L35.9624 38.6747C35.9717 39.9587 35.6628 41.1494 35.0357 42.2468C34.432 43.3202 33.6151 44.1809 32.5849 44.8287C31.5547 45.4765 30.4047 45.8039 29.1347 45.811ZM29.1037 41.5309C29.8328 41.5269 30.4423 41.25 30.9322 40.7003C31.4457 40.1505 31.6995 39.4833 31.6939 38.6986L31.6779 36.4872C31.6724 35.7263 31.4089 35.0739 30.8876 34.5299C30.3895 33.9619 29.776 33.68 29.0469 33.6841C28.3179 33.6882 27.6966 33.9651 27.1832 34.5149C26.6697 35.0647 26.4158 35.7319 26.4215 36.5166L26.4375 38.728C26.443 39.4889 26.7065 40.1533 27.2281 40.721C27.7494 41.2651 28.3747 41.535 29.1037 41.5309Z" fill="#FF0048"/>
</g>
<defs>
<clipPath id="clip0_33_8610">
<rect width="100" height="100" fill="white"/>
</clipPath>
</defs>
</svg>
