<svg width="98" height="98" viewBox="0 0 98 98" fill="none" xmlns="http://www.w3.org/2000/svg">
<g clip-path="url(#clip0_3054_19775)">
<path d="M98 0H0V98H98V0Z" fill="none"/>
<path d="M73.4986 42.2852V40.9583C73.4986 39.9263 73.7197 38.9721 74.162 38.0957C74.6125 37.2194 75.2637 36.515 76.1155 35.9826C76.9673 35.4502 78.0075 35.184 79.236 35.184C80.4892 35.184 81.5417 35.4502 82.3935 35.9826C83.2535 36.5068 83.9005 37.2071 84.3346 38.0835C84.7769 38.9516 84.998 39.9099 84.998 40.9583V42.2852C84.998 43.3172 84.7769 44.2714 84.3346 45.1477C83.8923 46.0241 83.2412 46.7285 82.3812 47.2609C81.5212 47.7933 80.4728 48.0595 79.236 48.0595C77.9911 48.0595 76.9427 47.7933 76.0909 47.2609C75.2391 46.7285 74.592 46.0241 74.1498 45.1477C73.7157 44.2714 73.4986 43.3172 73.4986 42.2852ZM77.4178 40.9583V42.2852C77.4178 42.8094 77.5447 43.3131 77.7986 43.7963C78.0607 44.2796 78.5398 44.5212 79.236 44.5212C79.9486 44.5212 80.4278 44.2877 80.6735 43.8209C80.9192 43.3458 81.042 42.8339 81.042 42.2852V40.9583C81.042 40.4095 80.9233 39.8935 80.6858 39.4103C80.4564 38.9189 79.9732 38.6732 79.236 38.6732C78.548 38.6732 78.073 38.9189 77.8109 39.4103C77.5488 39.8935 77.4178 40.4095 77.4178 40.9583ZM60.4512 27.8863V26.5594C60.4512 25.5111 60.6764 24.5528 61.1269 23.6846C61.5856 22.8082 62.2408 22.1079 63.0926 21.5837C63.9444 21.0513 64.9764 20.7852 66.1886 20.7852C67.4417 20.7852 68.4942 21.0513 69.346 21.5837C70.206 22.1079 70.8572 22.8082 71.2995 23.6846C71.7417 24.5528 71.9629 25.5111 71.9629 26.5594V27.8863C71.9629 28.9347 71.7377 29.893 71.2872 30.7612C70.8449 31.6294 70.1937 32.3214 69.3337 32.8374C68.4737 33.3534 67.4254 33.6114 66.1886 33.6114C64.9518 33.6114 63.9035 33.3494 63.0435 32.8252C62.1916 32.301 61.5446 31.6048 61.1023 30.7366C60.6682 29.8684 60.4512 28.9183 60.4512 27.8863ZM64.4072 26.5594V27.8863C64.4072 28.4351 64.5341 28.947 64.788 29.422C65.0501 29.8889 65.517 30.1223 66.1886 30.1223C66.9094 30.1223 67.3885 29.8889 67.626 29.422C67.8717 28.947 67.9946 28.4351 67.9946 27.8863V26.5594C67.9946 26.0107 67.8799 25.4947 67.6506 25.0114C67.4213 24.52 66.9339 24.2743 66.1886 24.2743C65.5006 24.2743 65.0297 24.5241 64.7757 25.0237C64.53 25.5233 64.4072 26.0353 64.4072 26.5594ZM62.3063 47.0029L79.6046 21.8417H82.9586L65.6603 47.0029H62.3063Z" fill="#FF0048"/>
<path d="M46.3019 47.3489C44.4672 47.3489 42.8373 47.0172 41.4121 46.3538C39.987 45.6903 38.8608 44.7771 38.0336 43.614C37.2145 42.451 36.7886 41.1159 36.7559 39.6089H42.653C42.7021 40.5344 43.0789 41.2798 43.7833 41.8449C44.4877 42.4019 45.3272 42.6803 46.3019 42.6803C47.0636 42.6803 47.7393 42.5124 48.329 42.1766C48.9187 41.8408 49.3815 41.3699 49.7173 40.7638C50.0531 40.1495 50.2169 39.4451 50.2087 38.6506C50.2169 37.8398 50.049 37.1313 49.705 36.5252C49.3692 35.9191 48.9023 35.4481 48.3044 35.1123C47.7147 34.7683 47.0349 34.5963 46.265 34.5963C45.5361 34.5881 44.844 34.7479 44.1887 35.0755C43.5417 35.4031 43.0502 35.8495 42.7144 36.4146L37.3456 35.4072L38.439 21.8438H54.5824V26.7458H43.4393L42.8619 32.6798H43.0093C43.427 31.9836 44.0986 31.4102 45.0241 30.9598C45.9579 30.5011 47.0185 30.2718 48.2061 30.2718C49.7132 30.2718 51.0564 30.6239 52.2359 31.3283C53.4235 32.0245 54.3572 32.991 55.037 34.2278C55.725 35.4645 56.069 36.8815 56.069 38.4786C56.069 40.2068 55.6595 41.7384 54.8404 43.0735C54.0296 44.4085 52.8911 45.4569 51.425 46.2186C49.9671 46.9721 48.2594 47.3489 46.3019 47.3489Z" fill="#FF0048"/>
<path d="M23.4779 47.3492C22.1019 47.3492 20.7833 47.128 19.5219 46.6857C18.2606 46.2353 17.1385 45.5227 16.1557 44.548C15.1728 43.5652 14.3988 42.2792 13.8337 40.6903C13.2685 39.0932 12.99 37.1479 12.9982 34.8546C13.0064 32.7824 13.2603 30.9231 13.7599 29.2769C14.2596 27.6224 14.9721 26.2177 15.8977 25.0629C16.8314 23.908 17.9453 23.0275 19.2394 22.4214C20.5417 21.8071 21.9955 21.5 23.6008 21.5C25.3618 21.5 26.9138 21.844 28.2571 22.532C29.6085 23.2118 30.6897 24.1291 31.5005 25.284C32.3114 26.4307 32.7905 27.7084 32.9379 29.1171H26.9548C26.7746 28.3227 26.3774 27.7207 25.7631 27.3111C25.157 26.8934 24.4362 26.6846 23.6008 26.6846C22.061 26.6846 20.9102 27.3521 20.1485 28.6871C19.395 30.0222 19.01 31.8077 18.9937 34.0437H19.1534C19.4974 33.2902 19.9929 32.6431 20.6399 32.1026C21.287 31.562 22.0282 31.1484 22.8637 30.8617C23.7073 30.5669 24.6 30.4194 25.5419 30.4194C27.049 30.4194 28.3799 30.7675 29.5348 31.4637C30.6897 32.1599 31.5947 33.1141 32.2499 34.3263C32.9052 35.5303 33.2287 36.9104 33.2205 38.4666C33.2287 40.2193 32.8192 41.7673 31.9919 43.1106C31.1647 44.4456 30.018 45.4858 28.5519 46.2312C27.094 46.9765 25.4027 47.3492 23.4779 47.3492ZM23.4411 42.6806C24.1864 42.6806 24.8539 42.5045 25.4437 42.1523C26.0334 41.8001 26.4961 41.321 26.8319 40.7149C27.1678 40.1088 27.3316 39.4249 27.3234 38.6632C27.3316 37.8932 27.1678 37.2093 26.8319 36.6114C26.5043 36.0135 26.0457 35.5385 25.4559 35.1863C24.8744 34.8341 24.2069 34.658 23.4534 34.658C22.9046 34.658 22.3927 34.7604 21.9177 34.9651C21.4426 35.1699 21.029 35.4566 20.6768 35.8251C20.3328 36.1855 20.0625 36.6114 19.8659 37.1029C19.6694 37.5861 19.567 38.1103 19.5588 38.6754C19.567 39.4208 19.739 40.0965 20.0748 40.7026C20.4106 41.3087 20.8693 41.7919 21.4508 42.1523C22.0323 42.5045 22.6958 42.6806 23.4411 42.6806Z" fill="#FF0048"/>
<path d="M60.2852 77.7158V57.332H74.1995V61.3332H65.212V65.5134H73.3138V69.5245H65.212V77.7158H60.2852Z" fill="#FF0048"/>
<path d="M45.0137 77.7158V57.332H58.928V61.3332H49.9405V65.5134H58.0422V69.5245H49.9405V77.7158H45.0137Z" fill="#FF0048"/>
<path d="M43.2552 67.5292C43.2552 69.7719 42.8238 71.673 41.9612 73.2322C41.0986 74.7916 39.9308 75.976 38.4577 76.7855C36.9913 77.595 35.3458 77.9998 33.521 77.9998C31.6897 77.9998 30.0408 77.5917 28.5744 76.7755C27.1079 75.9594 25.9434 74.775 25.0808 73.2223C24.2249 71.663 23.7969 69.7653 23.7969 67.5292C23.7969 65.2864 24.2249 63.3854 25.0808 61.8261C25.9434 60.2668 27.1079 59.0824 28.5744 58.2728C30.0408 57.4634 31.6897 57.0586 33.521 57.0586C35.3458 57.0586 36.9913 57.4634 38.4577 58.2728C39.9308 59.0824 41.0986 60.2668 41.9612 61.8261C42.8238 63.3854 43.2552 65.2864 43.2552 67.5292ZM38.2189 67.5292C38.2189 66.2021 38.0298 65.0808 37.6515 64.165C37.28 63.2493 36.7425 62.5559 36.0392 62.0849C35.3424 61.6138 34.5031 61.3782 33.521 61.3782C32.5456 61.3782 31.7063 61.6138 31.0029 62.0849C30.2996 62.5559 29.7588 63.2493 29.3806 64.165C29.009 65.0808 28.8232 66.2021 28.8232 67.5292C28.8232 68.8562 29.009 69.9777 29.3806 70.8933C29.7588 71.809 30.2996 72.5024 31.0029 72.9735C31.7063 73.4446 32.5456 73.6802 33.521 73.6802C34.5031 73.6802 35.3424 73.4446 36.0392 72.9735C36.7425 72.5024 37.28 71.809 37.6515 70.8933C38.0298 69.9777 38.2189 68.8562 38.2189 67.5292Z" fill="#FF0048"/>
</g>
<defs>
<clipPath id="clip0_3054_19775">
<rect width="98" height="98" fill="none"/>
</clipPath>
</defs>
</svg>
