<svg width="137" height="57" viewBox="0 0 137 57" fill="none" xmlns="http://www.w3.org/2000/svg">
<path d="M66.4034 0C73.6034 0 78.91 2.45333 82.3234 7.36C85.7367 12.2667 87.4434 18.9067 87.4434 27.28C87.4434 35.76 85.6834 42.6933 82.1634 48.08C78.6967 53.4667 73.4434 56.16 66.4034 56.16C59.4167 56.16 54.1634 53.6 50.6434 48.48C47.1767 43.3067 45.4434 36.5867 45.4434 28.32C45.4434 19.7867 47.15 12.9333 50.5634 7.76C53.9767 2.58667 59.2567 0 66.4034 0ZM66.4034 50.4C69.2834 50.4 71.23 48.4 72.2434 44.4C73.2567 40.3467 73.7634 34.8 73.7634 27.76C73.7634 21.04 73.2567 15.7067 72.2434 11.76C71.23 7.76 69.2834 5.76 66.4034 5.76C63.5767 5.76 61.6567 7.76 60.6434 11.76C59.63 15.7067 59.1234 21.04 59.1234 27.76C59.1234 34.8 59.63 40.3467 60.6434 44.4C61.6567 48.4 63.5767 50.4 66.4034 50.4Z" fill="#F80472"/>
<path d="M24.8 0C28.16 0 31.28 0.666668 34.16 2C37.04 3.33333 38.48 5.28 38.48 7.84C38.48 9.6 37.7867 11.0133 36.4 12.08C35.1733 11.0133 33.6533 10.2133 31.84 9.68C30.08 9.14667 28.32 8.88 26.56 8.88C22.1867 8.88 19.0667 10.1867 17.2 12.8C15.3333 15.4133 14.3467 19.2267 14.24 24.24C15.52 22.48 17.2267 21.1733 19.36 20.32C21.4933 19.4133 23.84 18.96 26.4 18.96C31.52 18.96 35.3067 20.6667 37.76 24.08C40.2667 27.44 41.52 31.4933 41.52 36.24C41.52 40.1867 40.6667 43.68 38.96 46.72C37.3067 49.7067 34.96 52.0267 31.92 53.68C28.9333 55.3333 25.4667 56.16 21.52 56.16C16.7733 56.16 12.7733 55.04 9.52 52.8C6.32 50.56 3.92 47.4667 2.32 43.52C0.773333 39.5733 0 35.0933 0 30.08C0 24.5333 0.906667 19.4933 2.72 14.96C4.58667 10.3733 7.36 6.74667 11.04 4.08C14.7733 1.36 19.36 0 24.8 0ZM21.52 25.28C17.1467 25.28 14.8 29.36 14.48 37.52C14.5867 41.0933 15.1467 44.1333 16.16 46.64C17.2267 49.1467 19.0133 50.4 21.52 50.4C24.08 50.4 25.8933 49.1467 26.96 46.64C28.0267 44.08 28.56 41.04 28.56 37.52C28.56 34.2667 28 31.4133 26.88 28.96C25.76 26.5067 23.9733 25.28 21.52 25.28Z" fill="#F80472"/>
<path d="M120.955 0.926758C121.438 0.926758 121.882 1.09182 122.288 1.42195C122.695 1.72669 123.025 2.1457 123.279 2.67898L107.471 26.6768C107.14 27.2101 106.798 27.6164 106.442 27.8958C106.112 28.2005 105.706 28.3529 105.223 28.3529C104.741 28.3529 104.296 28.1878 103.89 27.8577C103.484 27.5529 103.153 27.1466 102.9 26.6387L118.708 2.6028C119.038 2.06951 119.368 1.6632 119.698 1.38386C120.054 1.07913 120.473 0.926758 120.955 0.926758ZM102.595 1.61241C104.779 1.61241 106.442 2.27267 107.585 3.59319C108.728 4.9137 109.299 6.67862 109.299 8.88794C109.299 11.1988 108.728 13.0653 107.585 14.4874C106.442 15.9095 104.779 16.6206 102.595 16.6206C100.436 16.6206 98.7729 15.9349 97.6048 14.5636C96.462 13.1669 95.8906 11.3639 95.8906 9.15459C95.8906 6.89447 96.462 5.07876 97.6048 3.70746C98.7475 2.31076 100.411 1.61241 102.595 1.61241ZM102.595 3.517C101.833 3.517 101.312 4.03759 101.033 5.07876C100.754 6.09455 100.614 7.41506 100.614 9.04031C100.614 10.7417 100.741 12.1131 100.995 13.1542C101.249 14.17 101.782 14.6779 102.595 14.6779C103.382 14.6779 103.903 14.17 104.157 13.1542C104.41 12.1131 104.537 10.7417 104.537 9.04031C104.537 7.41506 104.398 6.09455 104.118 5.07876C103.865 4.03759 103.357 3.517 102.595 3.517ZM123.545 13.1542C125.729 13.1542 127.38 13.8145 128.497 15.135C129.64 16.4555 130.211 18.2331 130.211 20.4679C130.211 22.7534 129.64 24.6199 128.497 26.0673C127.38 27.4894 125.729 28.2005 123.545 28.2005C121.387 28.2005 119.723 27.5148 118.555 26.1435C117.387 24.7468 116.803 22.9311 116.803 20.6964C116.803 18.4363 117.374 16.6206 118.517 15.2493C119.685 13.8526 121.361 13.1542 123.545 13.1542ZM123.545 15.0588C122.758 15.0588 122.225 15.5667 121.945 16.5825C121.691 17.5983 121.564 18.9315 121.564 20.5821C121.564 22.309 121.691 23.693 121.945 24.7341C122.199 25.7499 122.733 26.2578 123.545 26.2578C124.333 26.2578 124.853 25.7372 125.107 24.696C125.361 23.6549 125.488 22.2836 125.488 20.5821C125.488 18.9569 125.348 17.6364 125.069 16.6206C124.815 15.5794 124.307 15.0588 123.545 15.0588Z" fill="#F80472"/>
<path d="M136.824 36.4375V38.7068H131.165V44.9116H135.962V47.2096H131.165V55.3964H126.396V36.4375H136.824Z" fill="#F80472"/>
<path d="M124.507 36.4375V38.7068H118.849V44.9116H123.646V47.2096H118.849V55.3964H114.08V36.4375H124.507Z" fill="#F80472"/>
<path d="M103.51 35.8633C106.345 35.8633 108.423 36.725 109.744 38.4486C111.065 40.1721 111.726 42.5755 111.726 45.6587C111.726 48.8185 111.056 51.3368 109.715 53.2136C108.394 55.0903 106.326 56.0287 103.51 56.0287C100.734 56.0287 98.6654 55.1286 97.3057 53.3285C95.9652 51.5283 95.2949 49.0962 95.2949 46.0321C95.2949 42.9106 95.9556 40.4402 97.277 38.6209C98.6175 36.7825 100.695 35.8633 103.51 35.8633ZM103.51 53.9604C104.794 53.9604 105.627 53.204 106.01 51.6911C106.393 50.1591 106.584 48.2057 106.584 45.8311C106.584 43.5522 106.383 41.6659 105.981 40.1721C105.598 38.6784 104.774 37.9315 103.51 37.9315C102.247 37.9315 101.413 38.688 101.011 40.2008C100.609 41.6946 100.408 43.5713 100.408 45.8311C100.408 48.1866 100.6 50.1303 100.983 51.6624C101.385 53.1944 102.227 53.9604 103.51 53.9604Z" fill="#F80472"/>
</svg>
