<svg width="56" height="56" viewBox="0 0 56 56" fill="none" xmlns="http://www.w3.org/2000/svg">
<path d="M28 56C43.464 56 56 43.464 56 28C56 12.536 43.464 0 28 0C12.536 0 0 12.536 0 28C0 43.464 12.536 56 28 56Z" fill="#DB0063"/>
<path d="M34.0626 19.0755L43.338 13.3398L38.7493 34.3668L35.9093 38.189H15.8496L12.6719 34.3668L15.1741 22.8977L20.7762 24.8089L19.1073 32.4556H23.1184L25.6228 20.9866H31.6404L29.136 32.4556H33.1493L36.0693 19.0755H34.0626Z" fill="white"/>
<path d="M19.1823 44.0111C20.2409 44.0111 21.099 43.1531 21.099 42.0944C21.099 41.0358 20.2409 40.1777 19.1823 40.1777C18.1238 40.1777 17.2656 41.0358 17.2656 42.0944C17.2656 43.1531 18.1238 44.0111 19.1823 44.0111Z" fill="white"/>
<path d="M29.1511 44.0111C30.2096 44.0111 31.0677 43.1531 31.0677 42.0944C31.0677 41.0358 30.2096 40.1777 29.1511 40.1777C28.0925 40.1777 27.2344 41.0358 27.2344 42.0944C27.2344 43.1531 28.0925 44.0111 29.1511 44.0111Z" fill="white"/>
</svg>
