<svg width="100" height="100" viewBox="0 0 100 100" fill="none" xmlns="http://www.w3.org/2000/svg">
    <path
        d="M50 100C77.6142 100 100 77.6142 100 50C100 22.3858 77.6142 0 50 0C22.3858 0 0 22.3858 0 50C0 77.6142 22.3858 100 50 100Z"
        fill="#DB0063" />
    <path
        d="M60.8208 34.0518L77.384 23.8096L69.1899 61.3576L64.1184 68.1831H28.2976L22.623 61.3576L27.0912 40.8772L37.095 44.29L34.1149 57.9449H41.2775L45.7497 37.4645H56.4955L52.0233 57.9449H59.1899L64.4041 34.0518H60.8208Z"
        fill="white" />
    <path
        d="M34.2605 78.5719C36.1508 78.5719 37.6832 77.0396 37.6832 75.1492C37.6832 73.2588 36.1508 71.7266 34.2605 71.7266C32.3703 71.7266 30.8379 73.2588 30.8379 75.1492C30.8379 77.0396 32.3703 78.5719 34.2605 78.5719Z"
        fill="white" />
    <path
        d="M52.0574 78.5719C53.9477 78.5719 55.4801 77.0396 55.4801 75.1492C55.4801 73.2588 53.9477 71.7266 52.0574 71.7266C50.1671 71.7266 48.6348 73.2588 48.6348 75.1492C48.6348 77.0396 50.1671 78.5719 52.0574 78.5719Z"
        fill="white" />
</svg>