<svg width="429" height="84" viewBox="0 0 429 84" fill="none" xmlns="http://www.w3.org/2000/svg">
    <path
        d="M411.208 28.9268C413.561 28.9268 415.782 29.3081 417.87 30.0703C419.975 30.8161 421.831 31.9764 423.438 33.5508C425.062 35.1251 426.339 37.1304 427.267 39.5664C428.195 41.9858 428.659 44.8694 428.659 48.2168V50.9756H402.063C402.09 53.1008 402.494 54.9325 403.278 56.4697C404.09 58.044 405.226 59.2535 406.685 60.0986C408.143 60.9271 409.849 61.3417 411.805 61.3418C413.114 61.3418 414.299 61.1594 415.359 60.7949C416.42 60.4138 417.34 59.8581 418.119 59.1289C418.898 58.3998 419.486 57.4969 419.884 56.4199L428.286 57.3643C427.756 59.5849 426.744 61.5235 425.253 63.1807C423.778 64.8212 421.889 66.0973 419.586 67.0088C417.282 67.9037 414.647 68.3516 411.681 68.3516C407.853 68.3516 404.547 67.5557 401.763 65.9648C398.995 64.3574 396.865 62.0874 395.374 59.1543C393.883 56.2045 393.137 52.7321 393.137 48.7383C393.137 44.8108 393.883 41.3638 395.374 38.3975C396.882 35.4147 398.986 33.0947 401.688 31.4375C404.389 29.7638 407.562 28.9268 411.208 28.9268ZM411.333 35.9365C409.494 35.9365 407.877 36.3844 406.485 37.2793C405.094 38.1575 404.008 39.3173 403.229 40.7588C402.549 42.0303 402.167 43.4144 402.08 44.9102H420.033C420.017 43.1868 419.643 41.6538 418.914 40.3115C418.185 38.9528 417.166 37.8843 415.856 37.1055C414.564 36.3267 413.056 35.9366 411.333 35.9365Z"
        fill="#DB0063" />
    <path
        d="M368.594 67.6056V29.4238H377.319V35.7875H377.717C378.413 33.5834 379.606 31.8848 381.296 30.6916C383.003 29.4818 384.95 28.877 387.138 28.877C387.635 28.877 388.19 28.9018 388.803 28.9515C389.433 28.9847 389.955 29.0427 390.369 29.1255V37.4032C389.988 37.2707 389.383 37.1547 388.555 37.0552C387.743 36.9392 386.956 36.8812 386.193 36.8812C384.553 36.8812 383.078 37.2375 381.768 37.9501C380.476 38.6461 379.457 39.6156 378.711 40.8585C377.965 42.1014 377.592 43.5349 377.592 45.1589V67.6056H368.594Z"
        fill="#DB0063" />
    <path
        d="M344.663 68.3505C340.934 68.3505 337.702 67.5302 334.968 65.8896C332.234 64.2489 330.112 61.9537 328.604 59.0039C327.113 56.0541 326.367 52.6071 326.367 48.663C326.367 44.7189 327.113 41.2636 328.604 38.2972C330.112 35.3308 332.234 33.0273 334.968 31.3867C337.702 29.7461 340.934 28.9258 344.663 28.9258C348.391 28.9258 351.623 29.7461 354.357 31.3867C357.092 33.0273 359.205 35.3308 360.696 38.2972C362.204 41.2636 362.958 44.7189 362.958 48.663C362.958 52.6071 362.204 56.0541 360.696 59.0039C359.205 61.9537 357.092 64.2489 354.357 65.8896C351.623 67.5302 348.391 68.3505 344.663 68.3505ZM344.712 61.1417C346.734 61.1417 348.424 60.5865 349.783 59.4762C351.142 58.3493 352.153 56.8413 352.816 54.9521C353.496 53.0629 353.835 50.9582 353.835 48.6381C353.835 46.3015 353.496 44.1886 352.816 42.2994C352.153 40.3936 351.142 38.8772 349.783 37.7504C348.424 36.6235 346.734 36.06 344.712 36.06C342.641 36.06 340.917 36.6235 339.542 37.7504C338.183 38.8772 337.164 40.3936 336.484 42.2994C335.821 44.1886 335.49 46.3015 335.49 48.6381C335.49 50.9582 335.821 53.0629 336.484 54.9521C337.164 56.8413 338.183 58.3493 339.542 59.4762C340.917 60.5865 342.641 61.1417 344.712 61.1417Z"
        fill="#DB0063" />
    <path
        d="M315.359 29.4229H322.891V36.3838H315.359V56.1201C315.359 57.3298 315.542 58.258 315.906 58.9043C316.287 59.534 316.784 59.9653 317.397 60.1973C318.011 60.4292 318.69 60.5449 319.436 60.5449C319.999 60.5449 320.513 60.5037 320.977 60.4209C321.457 60.3381 321.822 60.2635 322.07 60.1973L323.587 67.2324C323.106 67.3981 322.418 67.5805 321.523 67.7793C320.645 67.9781 319.568 68.0938 318.292 68.127C316.038 68.1932 314.008 67.8531 312.202 67.1074C310.396 66.3451 308.962 65.169 307.901 63.5781C306.857 61.9873 306.344 59.9985 306.36 57.6123V36.3838H300.941V29.4229H306.36V20.2754H315.359V29.4229Z"
        fill="#DB0063" />
    <path
        d="M287.432 30.6911C287.2 28.5201 286.222 26.8298 284.499 25.62C282.792 24.4103 280.571 23.8054 277.837 23.8054C275.915 23.8054 274.266 24.0954 272.89 24.6754C271.515 25.2554 270.462 26.0426 269.733 27.0369C269.004 28.0313 268.631 29.1664 268.615 30.4425C268.615 31.5031 268.855 32.4228 269.336 33.2017C269.833 33.9806 270.504 34.6435 271.349 35.1903C272.194 35.7206 273.131 36.1681 274.158 36.5327C275.185 36.8973 276.221 37.2038 277.265 37.4524L282.038 38.6456C283.96 39.093 285.808 39.6979 287.581 40.4602C289.371 41.2225 290.97 42.1837 292.379 43.3438C293.804 44.5038 294.931 45.9041 295.76 47.5447C296.588 49.1854 297.002 51.1077 297.002 53.3118C297.002 56.2947 296.24 58.9214 294.716 61.1918C293.191 63.4456 290.987 65.2105 288.103 66.4865C285.236 67.746 281.765 68.3757 277.688 68.3757C273.727 68.3757 270.288 67.7626 267.372 66.5362C264.472 65.3099 262.201 63.5201 260.561 61.1669C258.937 58.8137 258.058 55.9467 257.926 52.5661H266.999C267.132 54.3393 267.678 55.8142 268.64 56.9908C269.601 58.1674 270.852 59.0457 272.393 59.6257C273.951 60.2057 275.691 60.4957 277.613 60.4957C279.618 60.4957 281.375 60.1974 282.883 59.6009C284.408 58.9877 285.601 58.1425 286.463 57.0653C287.324 55.9716 287.764 54.6956 287.78 53.2372C287.764 51.9115 287.374 50.8177 286.612 49.956C285.85 49.0777 284.781 48.3485 283.405 47.7685C282.046 47.1719 280.455 46.6416 278.632 46.1776L272.841 44.6861C268.648 43.6089 265.333 41.9766 262.897 39.7891C260.478 37.585 259.268 34.66 259.268 31.0142C259.268 28.0147 260.08 25.388 261.704 23.1342C263.345 20.8804 265.574 19.1321 268.391 17.8892C271.208 16.6297 274.398 16 277.961 16C281.574 16 284.739 16.6297 287.457 17.8892C290.191 19.1321 292.337 20.8639 293.895 23.0845C295.453 25.2886 296.257 27.8241 296.306 30.6911H287.432Z"
        fill="#DB0063" />
    <path
        d="M213.887 67.6056L202.254 29.4238H208.419L216.672 58.6568H217.069L225.223 29.4238H231.487L239.541 58.5574H239.939L248.191 29.4238H254.356L242.723 67.6056H236.956L228.603 38.2733H228.007L219.654 67.6056H213.887Z"
        fill="#0A0A0A" />
    <path
        d="M182.282 68.4002C178.835 68.4002 175.81 67.5799 173.208 65.9393C170.623 64.2987 168.601 62.0034 167.143 59.0536C165.701 56.1038 164.98 52.6568 164.98 48.7127C164.98 44.7354 165.701 41.2636 167.143 38.2972C168.601 35.3308 170.623 33.0273 173.208 31.3867C175.81 29.7461 178.835 28.9258 182.282 28.9258C185.729 28.9258 188.745 29.7461 191.33 31.3867C193.932 33.0273 195.953 35.3308 197.395 38.2972C198.854 41.2636 199.583 44.7354 199.583 48.7127C199.583 52.6568 198.854 56.1038 197.395 59.0536C195.953 62.0034 193.932 64.2987 191.33 65.9393C188.745 67.5799 185.729 68.4002 182.282 68.4002ZM182.282 63.1303C184.9 63.1303 187.054 62.4592 188.745 61.1168C190.435 59.7745 191.686 58.0096 192.498 55.8221C193.31 53.6346 193.716 51.2648 193.716 48.7127C193.716 46.1606 193.31 43.7826 192.498 41.5785C191.686 39.3744 190.435 37.5929 188.745 36.234C187.054 34.8751 184.9 34.1957 182.282 34.1957C179.663 34.1957 177.509 34.8751 175.819 36.234C174.128 37.5929 172.877 39.3744 172.065 41.5785C171.253 43.7826 170.847 46.1606 170.847 48.7127C170.847 51.2648 171.253 53.6346 172.065 55.8221C172.877 58.0096 174.128 59.7745 175.819 61.1168C177.509 62.4592 179.663 63.1303 182.282 63.1303Z"
        fill="#0A0A0A" />
    <path
        d="M115.92 67.6054L102 16.6963H108.264L118.903 58.1594H119.401L130.239 16.6963H137.199L148.037 58.1594H148.534L159.173 16.6963H165.438L151.517 67.6054H145.153L133.918 27.0372H133.52L122.284 67.6054H115.92Z"
        fill="#0A0A0A" />
    <path
        d="M42 84C65.196 84 84 65.196 84 42C84 18.804 65.196 0 42 0C18.804 0 0 18.804 0 42C0 65.196 18.804 84 42 84Z"
        fill="#DB0063" />
    <path
        d="M51.0881 28.6029L65.0012 19.9995L58.1181 51.5399L53.858 57.2733H23.7685L19.002 51.5399L22.7552 34.3363L31.1584 37.203L28.6551 48.6732H34.6717L38.4283 31.4696H47.4548L43.6982 48.6732H49.7181L54.098 28.6029H51.0881Z"
        fill="white" />
    <path
        d="M28.7774 66.0001C30.3652 66.0001 31.6524 64.713 31.6524 63.125C31.6524 61.5371 30.3652 60.25 28.7774 60.25C27.1896 60.25 25.9023 61.5371 25.9023 63.125C25.9023 64.713 27.1896 66.0001 28.7774 66.0001Z"
        fill="white" />
    <path
        d="M43.7266 66.0001C45.3144 66.0001 46.6016 64.713 46.6016 63.125C46.6016 61.5371 45.3144 60.25 43.7266 60.25C42.1387 60.25 40.8516 61.5371 40.8516 63.125C40.8516 64.713 42.1387 66.0001 43.7266 66.0001Z"
        fill="white" />
</svg>